<svg xmlns="http://www.w3.org/2000/svg" xmlns:xlink="http://www.w3.org/1999/xlink" width="500" zoomAndPan="magnify" viewBox="0 0 375 374.999991" height="500" preserveAspectRatio="xMidYMid meet" version="1.0"><defs><g/><clipPath id="id1"><path d="M 130.355469 153.210938 L 216.605469 153.210938 L 216.605469 177.210938 L 130.355469 177.210938 Z M 130.355469 153.210938 " clip-rule="nonzero"/></clipPath></defs><g clip-path="url(#id1)"><path fill="#000000" d="M 209.582031 172.578125 L 209.582031 158.679688 L 195.722656 158.679688 L 195.722656 165.179688 L 173.449219 153.210938 L 130.921875 175.921875 L 131.554688 177.144531 L 173.449219 154.753906 L 215.40625 177.210938 L 216.039062 175.988281 Z M 197.117188 160.09375 L 208.253906 160.09375 L 208.253906 171.871094 L 197.117188 165.886719 Z M 197.117188 160.09375 " fill-opacity="1" fill-rule="nonzero"/></g><g fill="#000000" fill-opacity="1"><g transform="translate(125.355464, 206.112334)"><g><path d="M 3.578125 -30.8125 L 35.046875 -30.8125 C 36.097656 -30.8125 36.890625 -30.578125 37.421875 -30.109375 C 37.953125 -29.648438 38.21875 -29.070312 38.21875 -28.375 C 38.21875 -27.675781 37.941406 -27.066406 37.390625 -26.546875 C 36.847656 -26.035156 36.066406 -25.78125 35.046875 -25.78125 L 30.0625 -25.78125 C 29.945312 -24.914062 29.5625 -23.078125 28.90625 -20.265625 C 28.25 -17.460938 27.820312 -15.546875 27.625 -14.515625 C 27.425781 -13.492188 27.191406 -12.195312 26.921875 -10.625 C 26.660156 -9.0625 26.4375 -7.742188 26.25 -6.671875 C 26.0625 -5.609375 25.84375 -4.5 25.59375 -3.34375 C 25.101562 -1.082031 24.5625 0.046875 23.96875 0.046875 C 23.382812 0.046875 22.585938 -0.335938 21.578125 -1.109375 C 20.566406 -1.890625 20.0625 -2.570312 20.0625 -3.15625 C 20.0625 -3.75 20.28125 -5.425781 20.71875 -8.1875 C 18.851562 -6.945312 16.894531 -5.945312 14.84375 -5.1875 C 12.800781 -4.425781 10.957031 -4.046875 9.3125 -4.046875 C 7.664062 -4.046875 6.40625 -4.414062 5.53125 -5.15625 C 4.664062 -5.90625 4.234375 -6.960938 4.234375 -8.328125 C 4.234375 -10.066406 5.535156 -12.207031 8.140625 -14.75 C 8.515625 -15.15625 8.921875 -15.515625 9.359375 -15.828125 C 5.847656 -16.691406 4.09375 -18.164062 4.09375 -20.25 C 4.09375 -21.925781 5.410156 -23.769531 8.046875 -25.78125 L 3.578125 -25.78125 C 2.523438 -25.78125 1.726562 -26.019531 1.1875 -26.5 C 0.644531 -26.988281 0.375 -27.617188 0.375 -28.390625 C 0.375 -30.003906 1.441406 -30.8125 3.578125 -30.8125 Z M 16.296875 -16.984375 L 16.296875 -16.75 C 16.234375 -15.882812 15.554688 -14.953125 14.265625 -13.953125 C 12.972656 -12.960938 11.863281 -11.988281 10.9375 -11.03125 C 10.007812 -10.070312 9.546875 -9.375 9.546875 -8.9375 C 9.546875 -8.875 9.65625 -8.84375 9.875 -8.84375 C 11.445312 -8.84375 13.519531 -9.679688 16.09375 -11.359375 C 18.675781 -13.035156 20.695312 -14.789062 22.15625 -16.625 C 22.75 -19.8125 23.273438 -22.863281 23.734375 -25.78125 L 18.625 -25.78125 C 19.050781 -25.070312 19.265625 -24.429688 19.265625 -23.859375 C 19.265625 -23.285156 19.035156 -23 18.578125 -23 C 18.296875 -23 17.9375 -23.085938 17.5 -23.265625 C 17.0625 -23.453125 16.597656 -23.546875 16.109375 -23.546875 C 14.960938 -23.546875 13.554688 -23.132812 11.890625 -22.3125 C 10.234375 -21.488281 9.40625 -20.785156 9.40625 -20.203125 C 9.40625 -19.859375 9.707031 -19.613281 10.3125 -19.46875 C 10.914062 -19.332031 11.394531 -19.222656 11.75 -19.140625 C 12.101562 -19.066406 12.609375 -18.976562 13.265625 -18.875 C 13.921875 -18.769531 14.398438 -18.6875 14.703125 -18.625 C 15.765625 -18.4375 16.296875 -17.890625 16.296875 -16.984375 Z M 16.296875 -16.984375 "/></g></g></g><g fill="#000000" fill-opacity="1"><g transform="translate(155.742868, 206.112334)"><g><path d="M 3.3125 -30.8125 L 30.296875 -30.8125 C 31.359375 -30.8125 32.148438 -30.578125 32.671875 -30.109375 C 33.203125 -29.648438 33.46875 -29.070312 33.46875 -28.375 C 33.46875 -27.675781 33.195312 -27.066406 32.65625 -26.546875 C 32.113281 -26.035156 31.328125 -25.78125 30.296875 -25.78125 L 24.53125 -25.78125 C 24.96875 -24.664062 25.1875 -23.472656 25.1875 -22.203125 C 25.1875 -18.972656 23.734375 -15.898438 20.828125 -12.984375 C 17.929688 -10.066406 14.585938 -8.316406 10.796875 -7.734375 C 11.484375 -6.796875 11.988281 -6.09375 12.3125 -5.625 C 12.632812 -5.164062 13.148438 -4.4375 13.859375 -3.4375 C 14.578125 -2.445312 15.1875 -1.609375 15.6875 -0.921875 C 16.1875 -0.242188 16.695312 0.476562 17.21875 1.25 C 18.300781 2.832031 18.84375 3.875 18.84375 4.375 C 18.84375 5.457031 18.191406 6 16.890625 6 C 16.367188 6 15.820312 5.734375 15.25 5.203125 C 14.675781 4.679688 14.222656 4.253906 13.890625 3.921875 C 13.566406 3.597656 13.132812 3.101562 12.59375 2.4375 C 12.050781 1.769531 11.609375 1.238281 11.265625 0.84375 C 6.265625 -5.332031 3.394531 -9.210938 2.65625 -10.796875 C 2.375 -11.296875 2.234375 -11.867188 2.234375 -12.515625 C 2.234375 -13.171875 2.375 -13.773438 2.65625 -14.328125 C 2.9375 -14.890625 3.285156 -15.171875 3.703125 -15.171875 C 4.117188 -15.171875 4.921875 -14.828125 6.109375 -14.140625 C 7.304688 -13.460938 8.140625 -13.125 8.609375 -13.125 C 10.972656 -13.125 13.347656 -14.113281 15.734375 -16.09375 C 18.117188 -18.082031 19.3125 -20.257812 19.3125 -22.625 C 19.3125 -23.144531 19.148438 -23.597656 18.828125 -23.984375 C 18.503906 -24.378906 18.0625 -24.578125 17.5 -24.578125 C 16.320312 -24.578125 15.4375 -24.050781 14.84375 -23 C 14.8125 -22.96875 14.710938 -22.78125 14.546875 -22.4375 C 14.378906 -22.09375 14.253906 -21.863281 14.171875 -21.75 C 14.097656 -21.644531 13.96875 -21.46875 13.78125 -21.21875 C 13.46875 -20.851562 12.992188 -20.671875 12.359375 -20.671875 C 11.722656 -20.671875 10.859375 -21.101562 9.765625 -21.96875 C 8.679688 -22.84375 8.140625 -23.679688 8.140625 -24.484375 C 8.140625 -24.890625 8.21875 -25.320312 8.375 -25.78125 L 3.3125 -25.78125 C 2.25 -25.78125 1.445312 -26.019531 0.90625 -26.5 C 0.363281 -26.988281 0.09375 -27.617188 0.09375 -28.390625 C 0.09375 -30.003906 1.164062 -30.8125 3.3125 -30.8125 Z M 3.3125 -30.8125 "/></g></g></g><g fill="#000000" fill-opacity="1"><g transform="translate(179.801495, 206.112334)"><g><path d="M 4.75 -30.8125 L 36.8125 -30.8125 C 37.875 -30.8125 38.664062 -30.578125 39.1875 -30.109375 C 39.71875 -29.648438 39.984375 -29.070312 39.984375 -28.375 C 39.984375 -27.675781 39.710938 -27.066406 39.171875 -26.546875 C 38.628906 -26.035156 37.84375 -25.78125 36.8125 -25.78125 L 31.515625 -25.78125 C 31.328125 -23.769531 30.851562 -21.09375 30.09375 -17.75 C 29.332031 -14.414062 28.785156 -11.890625 28.453125 -10.171875 C 28.128906 -8.453125 27.859375 -7.085938 27.640625 -6.078125 C 27.429688 -5.066406 27.1875 -4.035156 26.90625 -2.984375 C 26.3125 -0.898438 25.535156 0.140625 24.578125 0.140625 C 23.890625 0.140625 23.265625 -0.144531 22.703125 -0.71875 C 22.148438 -1.289062 21.875 -2.140625 21.875 -3.265625 C 21.875 -3.753906 22.097656 -5.457031 22.546875 -8.375 C 23.003906 -11.289062 23.351562 -13.554688 23.59375 -15.171875 C 22.351562 -14.890625 19.921875 -14.472656 16.296875 -13.921875 C 15.023438 -6.992188 12.742188 -3.53125 9.453125 -3.53125 C 7.679688 -3.53125 6.003906 -4.476562 4.421875 -6.375 C 2.835938 -8.269531 2.046875 -10.078125 2.046875 -11.796875 C 2.046875 -13.523438 2.835938 -14.859375 4.421875 -15.796875 C 6.003906 -16.742188 8.316406 -17.53125 11.359375 -18.15625 C 11.546875 -21.070312 11.640625 -23.550781 11.640625 -25.59375 L 11.640625 -25.78125 L 4.75 -25.78125 C 3.695312 -25.78125 2.894531 -26.019531 2.34375 -26.5 C 1.800781 -26.988281 1.53125 -27.617188 1.53125 -28.390625 C 1.53125 -30.003906 2.601562 -30.8125 4.75 -30.8125 Z M 9.359375 -8.65625 C 9.941406 -8.65625 10.453125 -10.097656 10.890625 -12.984375 C 8.503906 -12.515625 7.3125 -12 7.3125 -11.4375 C 7.3125 -10.882812 7.554688 -10.28125 8.046875 -9.625 C 8.546875 -8.976562 8.984375 -8.65625 9.359375 -8.65625 Z M 17.21875 -25.78125 L 17.21875 -25.28125 C 17.21875 -23.414062 17.125 -21.363281 16.9375 -19.125 C 17.84375 -19.21875 20.3125 -19.59375 24.34375 -20.25 L 25.1875 -25.78125 Z M 17.21875 -25.78125 "/></g></g></g><g fill="#000000" fill-opacity="1"><g transform="translate(211.558584, 203.089981)"><g><path d="M 3.648438 -2.28125 C 3.648438 -2.203125 3.683594 -2.128906 3.683594 -2.050781 C 3.683594 -1.976562 3.683594 -1.9375 3.722656 -1.898438 L 3.722656 -0.644531 C 3.648438 -0.417969 3.609375 -0.152344 3.648438 0.0742188 C 3.683594 0.304688 3.722656 0.53125 3.800781 0.761719 C 3.875 1.140625 4.066406 1.40625 4.445312 1.558594 C 4.558594 1.632812 4.710938 1.746094 4.863281 1.824219 C 5.054688 2.128906 5.320312 2.242188 5.699219 2.164062 C 5.8125 2.164062 5.925781 2.128906 6.042969 2.128906 L 6.421875 2.128906 C 6.535156 2.128906 6.648438 2.089844 6.800781 2.015625 C 6.953125 1.9375 7.027344 1.824219 7.105469 1.671875 C 7.105469 1.671875 7.144531 1.597656 7.144531 1.480469 C 7.066406 1.328125 7.027344 1.140625 6.992188 0.949219 C 6.953125 0.796875 6.914062 0.609375 6.878906 0.457031 C 6.800781 0.226562 6.761719 -0.0390625 6.761719 -0.265625 C 6.761719 -0.492188 6.761719 -0.761719 6.761719 -1.027344 C 6.726562 -1.101562 6.726562 -1.179688 6.726562 -1.253906 C 6.726562 -1.328125 6.761719 -1.445312 6.761719 -1.519531 C 6.800781 -1.632812 6.761719 -1.746094 6.6875 -1.863281 C 6.609375 -2.015625 6.574219 -2.203125 6.609375 -2.394531 L 6.609375 -3.800781 C 6.609375 -3.914062 6.574219 -4.027344 6.574219 -4.101562 C 6.496094 -4.253906 6.496094 -4.371094 6.535156 -4.519531 C 6.535156 -4.636719 6.574219 -4.789062 6.648438 -4.9375 C 6.6875 -5.089844 6.726562 -5.28125 6.726562 -5.433594 C 6.726562 -5.585938 6.761719 -5.738281 6.839844 -5.925781 L 6.839844 -6.042969 C 6.726562 -6.269531 6.726562 -6.574219 6.878906 -6.878906 C 6.953125 -7.066406 6.953125 -7.257812 6.953125 -7.445312 C 6.914062 -7.636719 6.878906 -7.828125 6.839844 -8.054688 C 6.726562 -8.28125 6.609375 -8.398438 6.535156 -8.472656 C 6.382812 -8.511719 6.308594 -8.585938 6.308594 -8.664062 C 6.003906 -9.042969 5.699219 -9.308594 5.394531 -9.382812 C 5.054688 -9.460938 4.671875 -9.5 4.253906 -9.5 C 4.140625 -9.5 3.988281 -9.421875 3.800781 -9.347656 C 3.570312 -9.195312 3.382812 -9.082031 3.191406 -9.003906 C 2.964844 -8.890625 2.773438 -8.777344 2.582031 -8.664062 C 2.355469 -8.550781 2.089844 -8.398438 1.863281 -8.207031 C 1.597656 -7.980469 1.328125 -7.714844 1.0625 -7.371094 C 0.722656 -6.992188 0.53125 -6.574219 0.457031 -6.191406 C 0.417969 -5.964844 0.34375 -5.660156 0.265625 -5.355469 L 0.0390625 -4.789062 C 0 -4.710938 0 -4.597656 0 -4.445312 C 0 -3.914062 0.113281 -3.382812 0.378906 -2.886719 C 0.53125 -2.46875 0.835938 -2.203125 1.253906 -2.050781 C 1.328125 -2.015625 1.367188 -1.976562 1.445312 -1.976562 C 1.519531 -1.9375 1.558594 -1.898438 1.632812 -1.898438 C 1.898438 -1.824219 2.164062 -1.824219 2.46875 -1.824219 C 2.734375 -1.824219 3 -1.9375 3.304688 -2.128906 C 3.457031 -2.164062 3.570312 -2.203125 3.648438 -2.28125 Z M 4.445312 -7.828125 C 4.445312 -7.75 4.40625 -7.675781 4.40625 -7.675781 L 4.292969 -6.992188 C 4.253906 -6.914062 4.253906 -6.839844 4.253906 -6.761719 C 4.253906 -6.6875 4.21875 -6.648438 4.179688 -6.574219 C 4.066406 -6.34375 3.988281 -6.078125 3.914062 -5.851562 C 3.835938 -5.585938 3.722656 -5.355469 3.609375 -5.128906 C 3.265625 -4.40625 2.851562 -3.835938 2.355469 -3.417969 L 2.128906 -3.304688 C 1.898438 -3.191406 1.710938 -3.230469 1.597656 -3.457031 C 1.367188 -4.066406 1.328125 -4.636719 1.558594 -5.242188 C 1.597656 -5.320312 1.632812 -5.433594 1.632812 -5.507812 C 1.632812 -5.585938 1.632812 -5.660156 1.710938 -5.773438 C 1.9375 -6.230469 2.203125 -6.648438 2.582031 -6.953125 C 2.8125 -7.105469 3 -7.257812 3.230469 -7.410156 C 3.457031 -7.5625 3.683594 -7.675781 3.953125 -7.789062 C 4.101562 -7.863281 4.292969 -7.863281 4.445312 -7.828125 Z M 4.445312 -7.828125 "/></g></g></g><g fill="#000000" fill-opacity="1"><g transform="translate(218.967065, 203.089981)"><g><path d="M 1.328125 -6.382812 C 1.40625 -5.625 1.632812 -4.902344 1.9375 -4.179688 C 2.242188 -3.457031 2.507812 -2.925781 2.734375 -2.546875 C 2.851562 -2.316406 2.964844 -2.050781 3.078125 -1.824219 C 3.152344 -1.558594 3.191406 -1.292969 3.191406 -1.027344 C 3.191406 -0.949219 3.191406 -0.910156 3.191406 -0.875 C 3.191406 -0.835938 3.230469 -0.796875 3.230469 -0.761719 L 3.230469 -0.417969 C 3.230469 -0.304688 3.191406 -0.191406 3.191406 -0.0742188 C 3.039062 0.304688 2.851562 0.644531 2.546875 1.027344 C 2.242188 1.40625 1.898438 1.710938 1.558594 1.863281 C 1.328125 1.9375 1.140625 2.050781 0.988281 2.128906 C 0.835938 2.203125 0.644531 2.316406 0.492188 2.394531 C 0.34375 2.507812 0.191406 2.621094 0.113281 2.734375 C 0 2.886719 -0.0390625 3.039062 0.0390625 3.230469 L 0.0390625 3.304688 C 0 3.570312 0.0742188 3.800781 0.265625 3.988281 C 0.457031 4.179688 0.683594 4.332031 0.988281 4.445312 C 1.292969 4.597656 1.558594 4.710938 1.863281 4.789062 C 2.164062 4.863281 2.394531 4.9375 2.582031 4.976562 C 2.660156 4.976562 2.699219 5.015625 2.699219 5.054688 C 2.699219 5.207031 2.773438 5.242188 2.851562 5.242188 C 2.925781 5.242188 3 5.207031 3.078125 5.207031 C 3.382812 5.207031 3.683594 5.242188 3.988281 5.242188 C 4.292969 5.242188 4.636719 5.242188 4.9375 5.207031 C 5.242188 5.167969 5.507812 5.089844 5.8125 4.9375 C 6.078125 4.824219 6.34375 4.636719 6.574219 4.332031 C 6.726562 4.140625 6.839844 3.953125 6.992188 3.722656 C 7.105469 3.535156 7.257812 3.34375 7.445312 3.152344 C 7.902344 2.699219 8.09375 2.203125 8.09375 1.632812 C 8.09375 1.0625 7.941406 0.492188 7.714844 -0.0742188 C 7.484375 -0.609375 7.179688 -1.140625 6.800781 -1.671875 C 6.421875 -2.164062 6.117188 -2.582031 5.8125 -2.964844 C 5.8125 -2.964844 5.773438 -3 5.773438 -3 C 5.773438 -3 5.773438 -3 5.773438 -3.039062 C 5.625 -3.230469 5.472656 -3.417969 5.320312 -3.648438 C 5.167969 -3.875 5.015625 -4.101562 4.863281 -4.332031 C 4.484375 -4.789062 4.332031 -5.320312 4.332031 -5.925781 C 4.332031 -6.535156 4.597656 -7.027344 5.128906 -7.410156 C 5.28125 -7.5625 5.394531 -7.714844 5.433594 -7.941406 C 5.433594 -8.132812 5.394531 -8.320312 5.242188 -8.511719 C 5.089844 -8.664062 4.9375 -8.738281 4.863281 -8.816406 C 4.519531 -9.042969 4.179688 -9.15625 3.835938 -9.082031 C 3.34375 -9.003906 2.886719 -8.890625 2.433594 -8.738281 C 1.898438 -8.511719 1.597656 -8.207031 1.445312 -7.789062 C 1.292969 -7.332031 1.253906 -6.878906 1.328125 -6.382812 Z M 1.328125 -6.382812 "/></g></g></g><g fill="#000000" fill-opacity="1"><g transform="translate(227.097405, 203.089981)"><g><path d="M 3.648438 -2.28125 C 3.648438 -2.203125 3.683594 -2.128906 3.683594 -2.050781 C 3.683594 -1.976562 3.683594 -1.9375 3.722656 -1.898438 L 3.722656 -0.644531 C 3.648438 -0.417969 3.609375 -0.152344 3.648438 0.0742188 C 3.683594 0.304688 3.722656 0.53125 3.800781 0.761719 C 3.875 1.140625 4.066406 1.40625 4.445312 1.558594 C 4.558594 1.632812 4.710938 1.746094 4.863281 1.824219 C 5.054688 2.128906 5.320312 2.242188 5.699219 2.164062 C 5.8125 2.164062 5.925781 2.128906 6.042969 2.128906 L 6.421875 2.128906 C 6.535156 2.128906 6.648438 2.089844 6.800781 2.015625 C 6.953125 1.9375 7.027344 1.824219 7.105469 1.671875 C 7.105469 1.671875 7.144531 1.597656 7.144531 1.480469 C 7.066406 1.328125 7.027344 1.140625 6.992188 0.949219 C 6.953125 0.796875 6.914062 0.609375 6.878906 0.457031 C 6.800781 0.226562 6.761719 -0.0390625 6.761719 -0.265625 C 6.761719 -0.492188 6.761719 -0.761719 6.761719 -1.027344 C 6.726562 -1.101562 6.726562 -1.179688 6.726562 -1.253906 C 6.726562 -1.328125 6.761719 -1.445312 6.761719 -1.519531 C 6.800781 -1.632812 6.761719 -1.746094 6.6875 -1.863281 C 6.609375 -2.015625 6.574219 -2.203125 6.609375 -2.394531 L 6.609375 -3.800781 C 6.609375 -3.914062 6.574219 -4.027344 6.574219 -4.101562 C 6.496094 -4.253906 6.496094 -4.371094 6.535156 -4.519531 C 6.535156 -4.636719 6.574219 -4.789062 6.648438 -4.9375 C 6.6875 -5.089844 6.726562 -5.28125 6.726562 -5.433594 C 6.726562 -5.585938 6.761719 -5.738281 6.839844 -5.925781 L 6.839844 -6.042969 C 6.726562 -6.269531 6.726562 -6.574219 6.878906 -6.878906 C 6.953125 -7.066406 6.953125 -7.257812 6.953125 -7.445312 C 6.914062 -7.636719 6.878906 -7.828125 6.839844 -8.054688 C 6.726562 -8.28125 6.609375 -8.398438 6.535156 -8.472656 C 6.382812 -8.511719 6.308594 -8.585938 6.308594 -8.664062 C 6.003906 -9.042969 5.699219 -9.308594 5.394531 -9.382812 C 5.054688 -9.460938 4.671875 -9.5 4.253906 -9.5 C 4.140625 -9.5 3.988281 -9.421875 3.800781 -9.347656 C 3.570312 -9.195312 3.382812 -9.082031 3.191406 -9.003906 C 2.964844 -8.890625 2.773438 -8.777344 2.582031 -8.664062 C 2.355469 -8.550781 2.089844 -8.398438 1.863281 -8.207031 C 1.597656 -7.980469 1.328125 -7.714844 1.0625 -7.371094 C 0.722656 -6.992188 0.53125 -6.574219 0.457031 -6.191406 C 0.417969 -5.964844 0.34375 -5.660156 0.265625 -5.355469 L 0.0390625 -4.789062 C 0 -4.710938 0 -4.597656 0 -4.445312 C 0 -3.914062 0.113281 -3.382812 0.378906 -2.886719 C 0.53125 -2.46875 0.835938 -2.203125 1.253906 -2.050781 C 1.328125 -2.015625 1.367188 -1.976562 1.445312 -1.976562 C 1.519531 -1.9375 1.558594 -1.898438 1.632812 -1.898438 C 1.898438 -1.824219 2.164062 -1.824219 2.46875 -1.824219 C 2.734375 -1.824219 3 -1.9375 3.304688 -2.128906 C 3.457031 -2.164062 3.570312 -2.203125 3.648438 -2.28125 Z M 4.445312 -7.828125 C 4.445312 -7.75 4.40625 -7.675781 4.40625 -7.675781 L 4.292969 -6.992188 C 4.253906 -6.914062 4.253906 -6.839844 4.253906 -6.761719 C 4.253906 -6.6875 4.21875 -6.648438 4.179688 -6.574219 C 4.066406 -6.34375 3.988281 -6.078125 3.914062 -5.851562 C 3.835938 -5.585938 3.722656 -5.355469 3.609375 -5.128906 C 3.265625 -4.40625 2.851562 -3.835938 2.355469 -3.417969 L 2.128906 -3.304688 C 1.898438 -3.191406 1.710938 -3.230469 1.597656 -3.457031 C 1.367188 -4.066406 1.328125 -4.636719 1.558594 -5.242188 C 1.597656 -5.320312 1.632812 -5.433594 1.632812 -5.507812 C 1.632812 -5.585938 1.632812 -5.660156 1.710938 -5.773438 C 1.9375 -6.230469 2.203125 -6.648438 2.582031 -6.953125 C 2.8125 -7.105469 3 -7.257812 3.230469 -7.410156 C 3.457031 -7.5625 3.683594 -7.675781 3.953125 -7.789062 C 4.101562 -7.863281 4.292969 -7.863281 4.445312 -7.828125 Z M 4.445312 -7.828125 "/></g></g></g><g fill="#000000" fill-opacity="1"><g transform="translate(234.505886, 203.089981)"><g><path d="M 5.546875 2.546875 C 5.472656 2.394531 5.472656 2.316406 5.472656 2.28125 C 5.472656 2.242188 5.472656 2.164062 5.507812 2.015625 C 5.507812 1.824219 5.546875 1.632812 5.625 1.480469 C 5.660156 1.328125 5.699219 1.140625 5.699219 0.910156 C 5.738281 0.492188 5.8125 0.0742188 5.890625 -0.378906 C 5.964844 -0.835938 6.042969 -1.253906 6.042969 -1.710938 C 6.042969 -3.152344 6.230469 -4.519531 6.535156 -5.890625 C 6.839844 -7.21875 7.027344 -8.585938 7.144531 -10.03125 C 7.179688 -10.714844 7.21875 -11.625 7.296875 -12.765625 C 7.371094 -13.867188 7.410156 -15.007812 7.484375 -16.222656 C 7.5625 -17.441406 7.597656 -18.578125 7.675781 -19.71875 C 7.75 -20.820312 7.828125 -21.734375 7.902344 -22.453125 C 7.941406 -22.910156 7.941406 -23.367188 7.902344 -23.859375 C 7.863281 -24.316406 7.789062 -24.773438 7.636719 -25.230469 C 7.484375 -25.648438 7.257812 -26.066406 6.992188 -26.445312 C 6.726562 -26.824219 6.382812 -27.128906 5.964844 -27.394531 C 5.507812 -27.660156 5.054688 -27.8125 4.597656 -27.886719 C 4.140625 -27.925781 3.683594 -27.925781 3.152344 -27.886719 C 2.964844 -27.851562 2.851562 -27.773438 2.773438 -27.621094 C 2.699219 -27.46875 2.699219 -27.28125 2.699219 -27.089844 C 2.699219 -26.902344 2.699219 -26.710938 2.734375 -26.519531 C 2.773438 -26.332031 2.8125 -26.179688 2.8125 -26.101562 C 2.851562 -25.53125 2.851562 -24.960938 2.773438 -24.429688 C 2.699219 -23.898438 2.582031 -23.367188 2.46875 -22.835938 C 2.355469 -22.304688 2.28125 -21.582031 2.203125 -20.667969 C 2.128906 -19.71875 2.050781 -18.730469 2.015625 -17.742188 C 1.9375 -16.71875 1.898438 -15.730469 1.863281 -14.816406 C 1.824219 -13.867188 1.785156 -13.144531 1.746094 -12.613281 C 1.671875 -11.589844 1.558594 -10.601562 1.40625 -9.613281 C 1.253906 -8.625 1.140625 -7.597656 1.027344 -6.609375 C 0.910156 -5.851562 0.796875 -5.089844 0.683594 -4.332031 C 0.53125 -3.570312 0.457031 -2.8125 0.417969 -2.050781 C 0.34375 -1.328125 0.34375 -0.609375 0.417969 0.0742188 L 0.570312 2.203125 C 0.609375 3.039062 0.835938 3.835938 1.292969 4.597656 C 1.746094 5.355469 2.355469 5.925781 3.117188 6.230469 C 3.875 6.609375 4.519531 6.609375 5.054688 6.308594 C 5.546875 6.003906 6.003906 5.546875 6.382812 4.863281 L 6.535156 4.636719 C 6.574219 4.558594 6.609375 4.484375 6.6875 4.371094 C 6.761719 4.292969 6.800781 4.253906 6.800781 4.21875 C 6.800781 4.101562 6.839844 3.988281 6.839844 3.875 C 6.839844 3.761719 6.839844 3.648438 6.878906 3.496094 C 6.914062 3.265625 6.878906 3.078125 6.800781 2.925781 C 6.761719 2.925781 6.761719 2.886719 6.761719 2.8125 C 6.6875 2.546875 6.574219 2.394531 6.382812 2.316406 C 6.191406 2.28125 6.003906 2.316406 5.8125 2.433594 C 5.699219 2.507812 5.625 2.546875 5.546875 2.546875 Z M 5.546875 2.546875 "/></g></g></g><g fill="#000000" fill-opacity="1"><g transform="translate(242.104339, 203.089981)"><g><path d="M 3.648438 -2.28125 C 3.648438 -2.203125 3.683594 -2.128906 3.683594 -2.050781 C 3.683594 -1.976562 3.683594 -1.9375 3.722656 -1.898438 L 3.722656 -0.644531 C 3.648438 -0.417969 3.609375 -0.152344 3.648438 0.0742188 C 3.683594 0.304688 3.722656 0.53125 3.800781 0.761719 C 3.875 1.140625 4.066406 1.40625 4.445312 1.558594 C 4.558594 1.632812 4.710938 1.746094 4.863281 1.824219 C 5.054688 2.128906 5.320312 2.242188 5.699219 2.164062 C 5.8125 2.164062 5.925781 2.128906 6.042969 2.128906 L 6.421875 2.128906 C 6.535156 2.128906 6.648438 2.089844 6.800781 2.015625 C 6.953125 1.9375 7.027344 1.824219 7.105469 1.671875 C 7.105469 1.671875 7.144531 1.597656 7.144531 1.480469 C 7.066406 1.328125 7.027344 1.140625 6.992188 0.949219 C 6.953125 0.796875 6.914062 0.609375 6.878906 0.457031 C 6.800781 0.226562 6.761719 -0.0390625 6.761719 -0.265625 C 6.761719 -0.492188 6.761719 -0.761719 6.761719 -1.027344 C 6.726562 -1.101562 6.726562 -1.179688 6.726562 -1.253906 C 6.726562 -1.328125 6.761719 -1.445312 6.761719 -1.519531 C 6.800781 -1.632812 6.761719 -1.746094 6.6875 -1.863281 C 6.609375 -2.015625 6.574219 -2.203125 6.609375 -2.394531 L 6.609375 -3.800781 C 6.609375 -3.914062 6.574219 -4.027344 6.574219 -4.101562 C 6.496094 -4.253906 6.496094 -4.371094 6.535156 -4.519531 C 6.535156 -4.636719 6.574219 -4.789062 6.648438 -4.9375 C 6.6875 -5.089844 6.726562 -5.28125 6.726562 -5.433594 C 6.726562 -5.585938 6.761719 -5.738281 6.839844 -5.925781 L 6.839844 -6.042969 C 6.726562 -6.269531 6.726562 -6.574219 6.878906 -6.878906 C 6.953125 -7.066406 6.953125 -7.257812 6.953125 -7.445312 C 6.914062 -7.636719 6.878906 -7.828125 6.839844 -8.054688 C 6.726562 -8.28125 6.609375 -8.398438 6.535156 -8.472656 C 6.382812 -8.511719 6.308594 -8.585938 6.308594 -8.664062 C 6.003906 -9.042969 5.699219 -9.308594 5.394531 -9.382812 C 5.054688 -9.460938 4.671875 -9.5 4.253906 -9.5 C 4.140625 -9.5 3.988281 -9.421875 3.800781 -9.347656 C 3.570312 -9.195312 3.382812 -9.082031 3.191406 -9.003906 C 2.964844 -8.890625 2.773438 -8.777344 2.582031 -8.664062 C 2.355469 -8.550781 2.089844 -8.398438 1.863281 -8.207031 C 1.597656 -7.980469 1.328125 -7.714844 1.0625 -7.371094 C 0.722656 -6.992188 0.53125 -6.574219 0.457031 -6.191406 C 0.417969 -5.964844 0.34375 -5.660156 0.265625 -5.355469 L 0.0390625 -4.789062 C 0 -4.710938 0 -4.597656 0 -4.445312 C 0 -3.914062 0.113281 -3.382812 0.378906 -2.886719 C 0.53125 -2.46875 0.835938 -2.203125 1.253906 -2.050781 C 1.328125 -2.015625 1.367188 -1.976562 1.445312 -1.976562 C 1.519531 -1.9375 1.558594 -1.898438 1.632812 -1.898438 C 1.898438 -1.824219 2.164062 -1.824219 2.46875 -1.824219 C 2.734375 -1.824219 3 -1.9375 3.304688 -2.128906 C 3.457031 -2.164062 3.570312 -2.203125 3.648438 -2.28125 Z M 4.445312 -7.828125 C 4.445312 -7.75 4.40625 -7.675781 4.40625 -7.675781 L 4.292969 -6.992188 C 4.253906 -6.914062 4.253906 -6.839844 4.253906 -6.761719 C 4.253906 -6.6875 4.21875 -6.648438 4.179688 -6.574219 C 4.066406 -6.34375 3.988281 -6.078125 3.914062 -5.851562 C 3.835938 -5.585938 3.722656 -5.355469 3.609375 -5.128906 C 3.265625 -4.40625 2.851562 -3.835938 2.355469 -3.417969 L 2.128906 -3.304688 C 1.898438 -3.191406 1.710938 -3.230469 1.597656 -3.457031 C 1.367188 -4.066406 1.328125 -4.636719 1.558594 -5.242188 C 1.597656 -5.320312 1.632812 -5.433594 1.632812 -5.507812 C 1.632812 -5.585938 1.632812 -5.660156 1.710938 -5.773438 C 1.9375 -6.230469 2.203125 -6.648438 2.582031 -6.953125 C 2.8125 -7.105469 3 -7.257812 3.230469 -7.410156 C 3.457031 -7.5625 3.683594 -7.675781 3.953125 -7.789062 C 4.101562 -7.863281 4.292969 -7.863281 4.445312 -7.828125 Z M 4.445312 -7.828125 "/></g></g></g></svg>