<svg xmlns="http://www.w3.org/2000/svg" xmlns:xlink="http://www.w3.org/1999/xlink" width="500" zoomAndPan="magnify" viewBox="0 0 375 374.999991" height="500" preserveAspectRatio="xMidYMid meet" version="1.0"><defs><g/><clipPath id="id1"><path d="M 16 84.042969 L 275 84.042969 L 275 155.292969 L 16 155.292969 Z M 16 84.042969 " clip-rule="nonzero"/></clipPath></defs><g clip-path="url(#id1)"><path fill="#000000" d="M 254.855469 141.539062 L 254.855469 100.277344 L 212.910156 100.277344 L 212.910156 119.570312 L 145.488281 84.042969 L 16.78125 151.472656 L 18.695312 155.101562 L 145.488281 88.625 L 272.472656 155.292969 L 274.390625 151.664062 Z M 217.121094 104.480469 L 250.832031 104.480469 L 250.832031 139.4375 L 217.121094 121.671875 Z M 217.121094 104.480469 " fill-opacity="1" fill-rule="nonzero"/></g><g fill="#000000" fill-opacity="1"><g transform="translate(0.0000045, 243.656432)"><g><path d="M 10.8125 -92.96875 L 105.75 -92.96875 C 108.9375 -92.96875 111.320312 -92.265625 112.90625 -90.859375 C 114.5 -89.453125 115.296875 -87.695312 115.296875 -85.59375 C 115.296875 -83.488281 114.476562 -81.660156 112.84375 -80.109375 C 111.207031 -78.566406 108.84375 -77.796875 105.75 -77.796875 L 90.71875 -77.796875 C 90.34375 -75.179688 89.171875 -69.632812 87.203125 -61.15625 C 85.242188 -52.6875 83.957031 -46.90625 83.34375 -43.8125 C 82.738281 -40.726562 82.035156 -36.820312 81.234375 -32.09375 C 80.441406 -27.363281 79.765625 -23.382812 79.203125 -20.15625 C 78.640625 -16.925781 77.984375 -13.578125 77.234375 -10.109375 C 75.742188 -3.273438 74.109375 0.140625 72.328125 0.140625 C 70.546875 0.140625 68.132812 -1.023438 65.09375 -3.359375 C 62.050781 -5.703125 60.53125 -7.765625 60.53125 -9.546875 C 60.53125 -11.328125 61.1875 -16.382812 62.5 -24.71875 C 56.875 -20.96875 50.972656 -17.945312 44.796875 -15.65625 C 38.617188 -13.363281 33.046875 -12.21875 28.078125 -12.21875 C 23.117188 -12.21875 19.328125 -13.335938 16.703125 -15.578125 C 14.085938 -17.828125 12.78125 -21.015625 12.78125 -25.140625 C 12.78125 -30.378906 16.710938 -36.835938 24.578125 -44.515625 C 25.703125 -45.734375 26.921875 -46.8125 28.234375 -47.75 C 17.648438 -50.375 12.359375 -54.820312 12.359375 -61.09375 C 12.359375 -66.144531 16.335938 -71.710938 24.296875 -77.796875 L 10.8125 -77.796875 C 7.625 -77.796875 5.210938 -78.519531 3.578125 -79.96875 C 1.941406 -81.425781 1.125 -83.328125 1.125 -85.671875 C 1.125 -90.535156 4.351562 -92.96875 10.8125 -92.96875 Z M 49.15625 -51.265625 L 49.15625 -50.5625 C 48.96875 -47.9375 46.929688 -45.125 43.046875 -42.125 C 39.160156 -39.132812 35.8125 -36.1875 33 -33.28125 C 30.195312 -30.382812 28.796875 -28.28125 28.796875 -26.96875 C 28.796875 -26.78125 29.117188 -26.6875 29.765625 -26.6875 C 34.546875 -26.6875 40.820312 -29.210938 48.59375 -34.265625 C 56.363281 -39.316406 62.445312 -44.609375 66.84375 -50.140625 C 68.625 -59.773438 70.21875 -68.992188 71.625 -77.796875 L 56.171875 -77.796875 C 57.484375 -75.648438 58.140625 -73.707031 58.140625 -71.96875 C 58.140625 -70.238281 57.4375 -69.375 56.03125 -69.375 C 55.1875 -69.375 54.109375 -69.65625 52.796875 -70.21875 C 51.492188 -70.78125 50.09375 -71.0625 48.59375 -71.0625 C 45.125 -71.0625 40.882812 -69.820312 35.875 -67.34375 C 30.875 -64.863281 28.375 -62.734375 28.375 -60.953125 C 28.375 -59.921875 29.285156 -59.191406 31.109375 -58.765625 C 32.929688 -58.347656 34.378906 -58.019531 35.453125 -57.78125 C 36.535156 -57.550781 38.054688 -57.269531 40.015625 -56.9375 C 41.984375 -56.613281 43.4375 -56.359375 44.375 -56.171875 C 47.5625 -55.609375 49.15625 -53.972656 49.15625 -51.265625 Z M 49.15625 -51.265625 "/></g></g></g><g fill="#000000" fill-opacity="1"><g transform="translate(91.683665, 243.656432)"><g><path d="M 9.96875 -92.96875 L 91.421875 -92.96875 C 94.609375 -92.96875 96.992188 -92.265625 98.578125 -90.859375 C 100.171875 -89.453125 100.96875 -87.695312 100.96875 -85.59375 C 100.96875 -83.488281 100.148438 -81.660156 98.515625 -80.109375 C 96.878906 -78.566406 94.515625 -77.796875 91.421875 -77.796875 L 74.015625 -77.796875 C 75.328125 -74.429688 75.984375 -70.828125 75.984375 -66.984375 C 75.984375 -57.253906 71.601562 -47.988281 62.84375 -39.1875 C 54.09375 -30.382812 44.003906 -25.09375 32.578125 -23.3125 C 34.640625 -20.5 36.160156 -18.390625 37.140625 -16.984375 C 38.128906 -15.585938 39.695312 -13.390625 41.84375 -10.390625 C 44 -7.390625 45.828125 -4.859375 47.328125 -2.796875 C 48.828125 -0.742188 50.375 1.453125 51.96875 3.796875 C 55.238281 8.566406 56.875 11.703125 56.875 13.203125 C 56.875 16.472656 54.910156 18.109375 50.984375 18.109375 C 49.390625 18.109375 47.722656 17.3125 45.984375 15.71875 C 44.253906 14.132812 42.898438 12.847656 41.921875 11.859375 C 40.941406 10.878906 39.628906 9.382812 37.984375 7.375 C 36.347656 5.363281 35.015625 3.75 33.984375 2.53125 C 18.910156 -16.101562 10.25 -27.804688 8 -32.578125 C 7.15625 -34.078125 6.734375 -35.8125 6.734375 -37.78125 C 6.734375 -39.75 7.15625 -41.570312 8 -43.25 C 8.84375 -44.9375 9.894531 -45.78125 11.15625 -45.78125 C 12.425781 -45.78125 14.863281 -44.75 18.46875 -42.6875 C 22.070312 -40.632812 24.578125 -39.609375 25.984375 -39.609375 C 33.097656 -39.609375 40.257812 -42.601562 47.46875 -48.59375 C 54.675781 -54.582031 58.28125 -61.132812 58.28125 -68.25 C 58.28125 -69.84375 57.785156 -71.222656 56.796875 -72.390625 C 55.816406 -73.566406 54.484375 -74.15625 52.796875 -74.15625 C 49.242188 -74.15625 46.578125 -72.5625 44.796875 -69.375 C 44.703125 -69.28125 44.394531 -68.71875 43.875 -67.6875 C 43.363281 -66.65625 42.988281 -65.972656 42.75 -65.640625 C 42.519531 -65.316406 42.125 -64.785156 41.5625 -64.046875 C 40.632812 -62.921875 39.207031 -62.359375 37.28125 -62.359375 C 35.363281 -62.359375 32.765625 -63.664062 29.484375 -66.28125 C 26.210938 -68.90625 24.578125 -71.4375 24.578125 -73.875 C 24.578125 -75.09375 24.8125 -76.398438 25.28125 -77.796875 L 9.96875 -77.796875 C 6.789062 -77.796875 4.378906 -78.519531 2.734375 -79.96875 C 1.097656 -81.425781 0.28125 -83.328125 0.28125 -85.671875 C 0.28125 -90.535156 3.507812 -92.96875 9.96875 -92.96875 Z M 9.96875 -92.96875 "/></g></g></g><g fill="#000000" fill-opacity="1"><g transform="translate(164.272391, 243.656432)"><g><path d="M 14.328125 -92.96875 L 111.09375 -92.96875 C 114.269531 -92.96875 116.65625 -92.265625 118.25 -90.859375 C 119.84375 -89.453125 120.640625 -87.695312 120.640625 -85.59375 C 120.640625 -83.488281 119.816406 -81.660156 118.171875 -80.109375 C 116.535156 -78.566406 114.175781 -77.796875 111.09375 -77.796875 L 95.078125 -77.796875 C 94.515625 -71.710938 93.085938 -63.640625 90.796875 -53.578125 C 88.503906 -43.515625 86.863281 -35.882812 85.875 -30.6875 C 84.894531 -25.488281 84.078125 -21.367188 83.421875 -18.328125 C 82.765625 -15.285156 82.015625 -12.171875 81.171875 -8.984375 C 79.390625 -2.710938 77.050781 0.421875 74.15625 0.421875 C 72.09375 0.421875 70.21875 -0.441406 68.53125 -2.171875 C 66.84375 -3.910156 66 -6.460938 66 -9.828125 C 66 -11.328125 66.675781 -16.476562 68.03125 -25.28125 C 69.394531 -34.082031 70.453125 -40.914062 71.203125 -45.78125 C 67.453125 -44.9375 60.101562 -43.671875 49.15625 -41.984375 C 45.3125 -21.109375 38.429688 -10.671875 28.515625 -10.671875 C 23.171875 -10.671875 18.109375 -13.523438 13.328125 -19.234375 C 8.554688 -24.953125 6.171875 -30.40625 6.171875 -35.59375 C 6.171875 -40.789062 8.554688 -44.816406 13.328125 -47.671875 C 18.109375 -50.535156 25.085938 -52.898438 34.265625 -54.765625 C 34.828125 -63.566406 35.109375 -71.054688 35.109375 -77.234375 L 35.109375 -77.796875 L 14.328125 -77.796875 C 11.140625 -77.796875 8.726562 -78.519531 7.09375 -79.96875 C 5.457031 -81.425781 4.640625 -83.328125 4.640625 -85.671875 C 4.640625 -90.535156 7.867188 -92.96875 14.328125 -92.96875 Z M 28.234375 -26.125 C 30.003906 -26.125 31.546875 -30.476562 32.859375 -39.1875 C 25.648438 -37.78125 22.046875 -36.234375 22.046875 -34.546875 C 22.046875 -32.859375 22.796875 -31.03125 24.296875 -29.0625 C 25.796875 -27.101562 27.109375 -26.125 28.234375 -26.125 Z M 51.96875 -77.796875 L 51.96875 -76.25 C 51.96875 -70.632812 51.6875 -64.457031 51.125 -57.71875 C 53.832031 -58 61.273438 -59.125 73.453125 -61.09375 L 75.984375 -77.796875 Z M 51.96875 -77.796875 "/></g></g></g><g fill="#000000" fill-opacity="1"><g transform="translate(260.088605, 234.537475)"><g><path d="M 11.003906 -6.878906 C 11.003906 -6.648438 11.121094 -6.417969 11.121094 -6.191406 C 11.121094 -5.960938 11.121094 -5.847656 11.234375 -5.730469 L 11.234375 -1.949219 C 11.003906 -1.261719 10.890625 -0.457031 11.003906 0.230469 C 11.121094 0.917969 11.234375 1.605469 11.464844 2.292969 C 11.691406 3.4375 12.265625 4.242188 13.414062 4.699219 C 13.757812 4.929688 14.214844 5.273438 14.671875 5.503906 C 15.246094 6.417969 16.050781 6.761719 17.195312 6.535156 C 17.539062 6.535156 17.882812 6.417969 18.226562 6.417969 L 19.375 6.417969 C 19.71875 6.417969 20.0625 6.304688 20.519531 6.074219 C 20.980469 5.847656 21.207031 5.503906 21.4375 5.042969 C 21.4375 5.042969 21.550781 4.816406 21.550781 4.472656 C 21.324219 4.011719 21.207031 3.4375 21.09375 2.867188 C 20.980469 2.40625 20.863281 1.835938 20.75 1.375 C 20.519531 0.6875 20.40625 -0.113281 20.40625 -0.800781 C 20.40625 -1.492188 20.40625 -2.292969 20.40625 -3.09375 C 20.289062 -3.324219 20.289062 -3.554688 20.289062 -3.78125 C 20.289062 -4.011719 20.40625 -4.355469 20.40625 -4.585938 C 20.519531 -4.929688 20.40625 -5.273438 20.175781 -5.617188 C 19.945312 -6.074219 19.832031 -6.648438 19.945312 -7.222656 L 19.945312 -11.464844 C 19.945312 -11.808594 19.832031 -12.152344 19.832031 -12.378906 C 19.601562 -12.839844 19.601562 -13.183594 19.71875 -13.640625 C 19.71875 -13.984375 19.832031 -14.445312 20.0625 -14.902344 C 20.175781 -15.363281 20.289062 -15.933594 20.289062 -16.394531 C 20.289062 -16.851562 20.40625 -17.308594 20.632812 -17.882812 L 20.632812 -18.226562 C 20.289062 -18.914062 20.289062 -19.832031 20.75 -20.75 C 20.980469 -21.324219 20.980469 -21.894531 20.980469 -22.46875 C 20.863281 -23.042969 20.75 -23.613281 20.632812 -24.304688 C 20.289062 -24.992188 19.945312 -25.335938 19.71875 -25.5625 C 19.257812 -25.679688 19.03125 -25.90625 19.03125 -26.136719 C 18.113281 -27.285156 17.195312 -28.085938 16.277344 -28.316406 C 15.246094 -28.542969 14.101562 -28.660156 12.839844 -28.660156 C 12.496094 -28.660156 12.035156 -28.429688 11.464844 -28.199219 C 10.777344 -27.742188 10.203125 -27.398438 9.628906 -27.167969 C 8.941406 -26.824219 8.367188 -26.480469 7.796875 -26.136719 C 7.109375 -25.792969 6.304688 -25.335938 5.617188 -24.761719 C 4.816406 -24.074219 4.011719 -23.269531 3.210938 -22.238281 C 2.179688 -21.09375 1.605469 -19.832031 1.375 -18.6875 C 1.261719 -17.996094 1.03125 -17.082031 0.800781 -16.164062 L 0.113281 -14.445312 C 0 -14.214844 0 -13.871094 0 -13.414062 C 0 -11.808594 0.34375 -10.203125 1.144531 -8.710938 C 1.605469 -7.453125 2.523438 -6.648438 3.78125 -6.191406 C 4.011719 -6.074219 4.125 -5.960938 4.355469 -5.960938 C 4.585938 -5.847656 4.699219 -5.730469 4.929688 -5.730469 C 5.730469 -5.503906 6.535156 -5.503906 7.453125 -5.503906 C 8.253906 -5.503906 9.054688 -5.847656 9.972656 -6.417969 C 10.433594 -6.535156 10.777344 -6.648438 11.003906 -6.878906 Z M 13.414062 -23.613281 C 13.414062 -23.386719 13.296875 -23.15625 13.296875 -23.15625 L 12.953125 -21.09375 C 12.839844 -20.863281 12.839844 -20.632812 12.839844 -20.40625 C 12.839844 -20.175781 12.726562 -20.0625 12.609375 -19.832031 C 12.265625 -19.144531 12.035156 -18.34375 11.808594 -17.652344 C 11.578125 -16.851562 11.234375 -16.164062 10.890625 -15.476562 C 9.859375 -13.296875 8.597656 -11.578125 7.109375 -10.316406 L 6.417969 -9.972656 C 5.730469 -9.628906 5.160156 -9.746094 4.816406 -10.433594 C 4.125 -12.265625 4.011719 -13.984375 4.699219 -15.820312 C 4.816406 -16.050781 4.929688 -16.394531 4.929688 -16.621094 C 4.929688 -16.851562 4.929688 -17.082031 5.160156 -17.425781 C 5.847656 -18.800781 6.648438 -20.0625 7.796875 -20.980469 C 8.484375 -21.4375 9.054688 -21.894531 9.746094 -22.355469 C 10.433594 -22.8125 11.121094 -23.15625 11.921875 -23.5 C 12.378906 -23.730469 12.953125 -23.730469 13.414062 -23.613281 Z M 13.414062 -23.613281 "/></g></g></g><g fill="#000000" fill-opacity="1"><g transform="translate(282.441179, 234.537475)"><g><path d="M 4.011719 -19.257812 C 4.242188 -16.964844 4.929688 -14.789062 5.847656 -12.609375 C 6.761719 -10.433594 7.566406 -8.828125 8.253906 -7.679688 C 8.597656 -6.992188 8.941406 -6.191406 9.285156 -5.503906 C 9.515625 -4.699219 9.628906 -3.898438 9.628906 -3.09375 C 9.628906 -2.867188 9.628906 -2.75 9.628906 -2.636719 C 9.628906 -2.523438 9.746094 -2.40625 9.746094 -2.292969 L 9.746094 -1.261719 C 9.746094 -0.917969 9.628906 -0.574219 9.628906 -0.230469 C 9.171875 0.917969 8.597656 1.949219 7.679688 3.09375 C 6.761719 4.242188 5.730469 5.160156 4.699219 5.617188 C 4.011719 5.847656 3.4375 6.191406 2.980469 6.417969 C 2.523438 6.648438 1.949219 6.992188 1.492188 7.222656 C 1.03125 7.566406 0.574219 7.910156 0.34375 8.253906 C 0 8.710938 -0.113281 9.171875 0.113281 9.746094 L 0.113281 9.972656 C 0 10.777344 0.230469 11.464844 0.800781 12.035156 C 1.375 12.609375 2.0625 13.070312 2.980469 13.414062 C 3.898438 13.871094 4.699219 14.214844 5.617188 14.445312 C 6.535156 14.671875 7.222656 14.902344 7.796875 15.015625 C 8.023438 15.015625 8.140625 15.132812 8.140625 15.246094 C 8.140625 15.707031 8.367188 15.820312 8.597656 15.820312 C 8.828125 15.820312 9.054688 15.707031 9.285156 15.707031 C 10.203125 15.707031 11.121094 15.820312 12.035156 15.820312 C 12.953125 15.820312 13.984375 15.820312 14.902344 15.707031 C 15.820312 15.589844 16.621094 15.363281 17.539062 14.902344 C 18.34375 14.558594 19.144531 13.984375 19.832031 13.070312 C 20.289062 12.496094 20.632812 11.921875 21.09375 11.234375 C 21.4375 10.660156 21.894531 10.089844 22.46875 9.515625 C 23.84375 8.140625 24.417969 6.648438 24.417969 4.929688 C 24.417969 3.210938 23.960938 1.492188 23.269531 -0.230469 C 22.582031 -1.835938 21.667969 -3.4375 20.519531 -5.042969 C 19.375 -6.535156 18.457031 -7.796875 17.539062 -8.941406 C 17.539062 -8.941406 17.425781 -9.054688 17.425781 -9.054688 C 17.425781 -9.054688 17.425781 -9.054688 17.425781 -9.171875 C 16.964844 -9.746094 16.507812 -10.316406 16.050781 -11.003906 C 15.589844 -11.691406 15.132812 -12.378906 14.671875 -13.070312 C 13.527344 -14.445312 13.070312 -16.050781 13.070312 -17.882812 C 13.070312 -19.71875 13.871094 -21.207031 15.476562 -22.355469 C 15.933594 -22.8125 16.277344 -23.269531 16.394531 -23.960938 C 16.394531 -24.53125 16.277344 -25.105469 15.820312 -25.679688 C 15.363281 -26.136719 14.902344 -26.367188 14.671875 -26.597656 C 13.640625 -27.285156 12.609375 -27.628906 11.578125 -27.398438 C 10.089844 -27.167969 8.710938 -26.824219 7.335938 -26.367188 C 5.730469 -25.679688 4.816406 -24.761719 4.355469 -23.5 C 3.898438 -22.125 3.78125 -20.75 4.011719 -19.257812 Z M 4.011719 -19.257812 "/></g></g></g><g fill="#000000" fill-opacity="1"><g transform="translate(306.971716, 234.537475)"><g><path d="M 11.003906 -6.878906 C 11.003906 -6.648438 11.121094 -6.417969 11.121094 -6.191406 C 11.121094 -5.960938 11.121094 -5.847656 11.234375 -5.730469 L 11.234375 -1.949219 C 11.003906 -1.261719 10.890625 -0.457031 11.003906 0.230469 C 11.121094 0.917969 11.234375 1.605469 11.464844 2.292969 C 11.691406 3.4375 12.265625 4.242188 13.414062 4.699219 C 13.757812 4.929688 14.214844 5.273438 14.671875 5.503906 C 15.246094 6.417969 16.050781 6.761719 17.195312 6.535156 C 17.539062 6.535156 17.882812 6.417969 18.226562 6.417969 L 19.375 6.417969 C 19.71875 6.417969 20.0625 6.304688 20.519531 6.074219 C 20.980469 5.847656 21.207031 5.503906 21.4375 5.042969 C 21.4375 5.042969 21.550781 4.816406 21.550781 4.472656 C 21.324219 4.011719 21.207031 3.4375 21.09375 2.867188 C 20.980469 2.40625 20.863281 1.835938 20.75 1.375 C 20.519531 0.6875 20.40625 -0.113281 20.40625 -0.800781 C 20.40625 -1.492188 20.40625 -2.292969 20.40625 -3.09375 C 20.289062 -3.324219 20.289062 -3.554688 20.289062 -3.78125 C 20.289062 -4.011719 20.40625 -4.355469 20.40625 -4.585938 C 20.519531 -4.929688 20.40625 -5.273438 20.175781 -5.617188 C 19.945312 -6.074219 19.832031 -6.648438 19.945312 -7.222656 L 19.945312 -11.464844 C 19.945312 -11.808594 19.832031 -12.152344 19.832031 -12.378906 C 19.601562 -12.839844 19.601562 -13.183594 19.71875 -13.640625 C 19.71875 -13.984375 19.832031 -14.445312 20.0625 -14.902344 C 20.175781 -15.363281 20.289062 -15.933594 20.289062 -16.394531 C 20.289062 -16.851562 20.40625 -17.308594 20.632812 -17.882812 L 20.632812 -18.226562 C 20.289062 -18.914062 20.289062 -19.832031 20.75 -20.75 C 20.980469 -21.324219 20.980469 -21.894531 20.980469 -22.46875 C 20.863281 -23.042969 20.75 -23.613281 20.632812 -24.304688 C 20.289062 -24.992188 19.945312 -25.335938 19.71875 -25.5625 C 19.257812 -25.679688 19.03125 -25.90625 19.03125 -26.136719 C 18.113281 -27.285156 17.195312 -28.085938 16.277344 -28.316406 C 15.246094 -28.542969 14.101562 -28.660156 12.839844 -28.660156 C 12.496094 -28.660156 12.035156 -28.429688 11.464844 -28.199219 C 10.777344 -27.742188 10.203125 -27.398438 9.628906 -27.167969 C 8.941406 -26.824219 8.367188 -26.480469 7.796875 -26.136719 C 7.109375 -25.792969 6.304688 -25.335938 5.617188 -24.761719 C 4.816406 -24.074219 4.011719 -23.269531 3.210938 -22.238281 C 2.179688 -21.09375 1.605469 -19.832031 1.375 -18.6875 C 1.261719 -17.996094 1.03125 -17.082031 0.800781 -16.164062 L 0.113281 -14.445312 C 0 -14.214844 0 -13.871094 0 -13.414062 C 0 -11.808594 0.34375 -10.203125 1.144531 -8.710938 C 1.605469 -7.453125 2.523438 -6.648438 3.78125 -6.191406 C 4.011719 -6.074219 4.125 -5.960938 4.355469 -5.960938 C 4.585938 -5.847656 4.699219 -5.730469 4.929688 -5.730469 C 5.730469 -5.503906 6.535156 -5.503906 7.453125 -5.503906 C 8.253906 -5.503906 9.054688 -5.847656 9.972656 -6.417969 C 10.433594 -6.535156 10.777344 -6.648438 11.003906 -6.878906 Z M 13.414062 -23.613281 C 13.414062 -23.386719 13.296875 -23.15625 13.296875 -23.15625 L 12.953125 -21.09375 C 12.839844 -20.863281 12.839844 -20.632812 12.839844 -20.40625 C 12.839844 -20.175781 12.726562 -20.0625 12.609375 -19.832031 C 12.265625 -19.144531 12.035156 -18.34375 11.808594 -17.652344 C 11.578125 -16.851562 11.234375 -16.164062 10.890625 -15.476562 C 9.859375 -13.296875 8.597656 -11.578125 7.109375 -10.316406 L 6.417969 -9.972656 C 5.730469 -9.628906 5.160156 -9.746094 4.816406 -10.433594 C 4.125 -12.265625 4.011719 -13.984375 4.699219 -15.820312 C 4.816406 -16.050781 4.929688 -16.394531 4.929688 -16.621094 C 4.929688 -16.851562 4.929688 -17.082031 5.160156 -17.425781 C 5.847656 -18.800781 6.648438 -20.0625 7.796875 -20.980469 C 8.484375 -21.4375 9.054688 -21.894531 9.746094 -22.355469 C 10.433594 -22.8125 11.121094 -23.15625 11.921875 -23.5 C 12.378906 -23.730469 12.953125 -23.730469 13.414062 -23.613281 Z M 13.414062 -23.613281 "/></g></g></g><g fill="#000000" fill-opacity="1"><g transform="translate(329.324289, 234.537475)"><g><path d="M 16.738281 7.679688 C 16.507812 7.222656 16.507812 6.992188 16.507812 6.878906 C 16.507812 6.761719 16.507812 6.535156 16.621094 6.074219 C 16.621094 5.503906 16.738281 4.929688 16.964844 4.472656 C 17.082031 4.011719 17.195312 3.4375 17.195312 2.75 C 17.308594 1.492188 17.539062 0.230469 17.769531 -1.144531 C 17.996094 -2.523438 18.226562 -3.78125 18.226562 -5.160156 C 18.226562 -9.515625 18.800781 -13.640625 19.71875 -17.769531 C 20.632812 -21.78125 21.207031 -25.90625 21.550781 -30.265625 C 21.667969 -32.328125 21.78125 -35.078125 22.011719 -38.519531 C 22.238281 -41.84375 22.355469 -45.28125 22.582031 -48.949219 C 22.8125 -52.617188 22.925781 -56.058594 23.15625 -59.496094 C 23.386719 -62.820312 23.613281 -65.574219 23.84375 -67.75 C 23.960938 -69.125 23.960938 -70.5 23.84375 -71.992188 C 23.730469 -73.367188 23.5 -74.742188 23.042969 -76.117188 C 22.582031 -77.378906 21.894531 -78.640625 21.09375 -79.789062 C 20.289062 -80.933594 19.257812 -81.851562 17.996094 -82.652344 C 16.621094 -83.457031 15.246094 -83.914062 13.871094 -84.144531 C 12.496094 -84.257812 11.121094 -84.257812 9.515625 -84.144531 C 8.941406 -84.027344 8.597656 -83.800781 8.367188 -83.339844 C 8.140625 -82.882812 8.140625 -82.308594 8.140625 -81.734375 C 8.140625 -81.164062 8.140625 -80.589844 8.253906 -80.015625 C 8.367188 -79.445312 8.484375 -78.984375 8.484375 -78.753906 C 8.597656 -77.035156 8.597656 -75.316406 8.367188 -73.710938 C 8.140625 -72.105469 7.796875 -70.5 7.453125 -68.898438 C 7.109375 -67.292969 6.878906 -65.113281 6.648438 -62.363281 C 6.417969 -59.496094 6.191406 -56.515625 6.074219 -53.535156 C 5.847656 -50.441406 5.730469 -47.460938 5.617188 -44.707031 C 5.503906 -41.84375 5.386719 -39.664062 5.273438 -38.058594 C 5.042969 -34.964844 4.699219 -31.984375 4.242188 -29.003906 C 3.78125 -26.023438 3.4375 -22.925781 3.09375 -19.945312 C 2.75 -17.652344 2.40625 -15.363281 2.0625 -13.070312 C 1.605469 -10.777344 1.375 -8.484375 1.261719 -6.191406 C 1.03125 -4.011719 1.03125 -1.835938 1.261719 0.230469 L 1.71875 6.648438 C 1.835938 9.171875 2.523438 11.578125 3.898438 13.871094 C 5.273438 16.164062 7.109375 17.882812 9.398438 18.800781 C 11.691406 19.945312 13.640625 19.945312 15.246094 19.03125 C 16.738281 18.113281 18.113281 16.738281 19.257812 14.671875 L 19.71875 13.984375 C 19.832031 13.757812 19.945312 13.527344 20.175781 13.183594 C 20.40625 12.953125 20.519531 12.839844 20.519531 12.726562 C 20.519531 12.378906 20.632812 12.035156 20.632812 11.691406 C 20.632812 11.347656 20.632812 11.003906 20.75 10.546875 C 20.863281 9.859375 20.75 9.285156 20.519531 8.828125 C 20.40625 8.828125 20.40625 8.710938 20.40625 8.484375 C 20.175781 7.679688 19.832031 7.222656 19.257812 6.992188 C 18.6875 6.878906 18.113281 6.992188 17.539062 7.335938 C 17.195312 7.566406 16.964844 7.679688 16.738281 7.679688 Z M 16.738281 7.679688 "/></g></g></g><g fill="#000000" fill-opacity="1"><g transform="translate(352.250038, 234.537475)"><g><path d="M 11.003906 -6.878906 C 11.003906 -6.648438 11.121094 -6.417969 11.121094 -6.191406 C 11.121094 -5.960938 11.121094 -5.847656 11.234375 -5.730469 L 11.234375 -1.949219 C 11.003906 -1.261719 10.890625 -0.457031 11.003906 0.230469 C 11.121094 0.917969 11.234375 1.605469 11.464844 2.292969 C 11.691406 3.4375 12.265625 4.242188 13.414062 4.699219 C 13.757812 4.929688 14.214844 5.273438 14.671875 5.503906 C 15.246094 6.417969 16.050781 6.761719 17.195312 6.535156 C 17.539062 6.535156 17.882812 6.417969 18.226562 6.417969 L 19.375 6.417969 C 19.71875 6.417969 20.0625 6.304688 20.519531 6.074219 C 20.980469 5.847656 21.207031 5.503906 21.4375 5.042969 C 21.4375 5.042969 21.550781 4.816406 21.550781 4.472656 C 21.324219 4.011719 21.207031 3.4375 21.09375 2.867188 C 20.980469 2.40625 20.863281 1.835938 20.75 1.375 C 20.519531 0.6875 20.40625 -0.113281 20.40625 -0.800781 C 20.40625 -1.492188 20.40625 -2.292969 20.40625 -3.09375 C 20.289062 -3.324219 20.289062 -3.554688 20.289062 -3.78125 C 20.289062 -4.011719 20.40625 -4.355469 20.40625 -4.585938 C 20.519531 -4.929688 20.40625 -5.273438 20.175781 -5.617188 C 19.945312 -6.074219 19.832031 -6.648438 19.945312 -7.222656 L 19.945312 -11.464844 C 19.945312 -11.808594 19.832031 -12.152344 19.832031 -12.378906 C 19.601562 -12.839844 19.601562 -13.183594 19.71875 -13.640625 C 19.71875 -13.984375 19.832031 -14.445312 20.0625 -14.902344 C 20.175781 -15.363281 20.289062 -15.933594 20.289062 -16.394531 C 20.289062 -16.851562 20.40625 -17.308594 20.632812 -17.882812 L 20.632812 -18.226562 C 20.289062 -18.914062 20.289062 -19.832031 20.75 -20.75 C 20.980469 -21.324219 20.980469 -21.894531 20.980469 -22.46875 C 20.863281 -23.042969 20.75 -23.613281 20.632812 -24.304688 C 20.289062 -24.992188 19.945312 -25.335938 19.71875 -25.5625 C 19.257812 -25.679688 19.03125 -25.90625 19.03125 -26.136719 C 18.113281 -27.285156 17.195312 -28.085938 16.277344 -28.316406 C 15.246094 -28.542969 14.101562 -28.660156 12.839844 -28.660156 C 12.496094 -28.660156 12.035156 -28.429688 11.464844 -28.199219 C 10.777344 -27.742188 10.203125 -27.398438 9.628906 -27.167969 C 8.941406 -26.824219 8.367188 -26.480469 7.796875 -26.136719 C 7.109375 -25.792969 6.304688 -25.335938 5.617188 -24.761719 C 4.816406 -24.074219 4.011719 -23.269531 3.210938 -22.238281 C 2.179688 -21.09375 1.605469 -19.832031 1.375 -18.6875 C 1.261719 -17.996094 1.03125 -17.082031 0.800781 -16.164062 L 0.113281 -14.445312 C 0 -14.214844 0 -13.871094 0 -13.414062 C 0 -11.808594 0.34375 -10.203125 1.144531 -8.710938 C 1.605469 -7.453125 2.523438 -6.648438 3.78125 -6.191406 C 4.011719 -6.074219 4.125 -5.960938 4.355469 -5.960938 C 4.585938 -5.847656 4.699219 -5.730469 4.929688 -5.730469 C 5.730469 -5.503906 6.535156 -5.503906 7.453125 -5.503906 C 8.253906 -5.503906 9.054688 -5.847656 9.972656 -6.417969 C 10.433594 -6.535156 10.777344 -6.648438 11.003906 -6.878906 Z M 13.414062 -23.613281 C 13.414062 -23.386719 13.296875 -23.15625 13.296875 -23.15625 L 12.953125 -21.09375 C 12.839844 -20.863281 12.839844 -20.632812 12.839844 -20.40625 C 12.839844 -20.175781 12.726562 -20.0625 12.609375 -19.832031 C 12.265625 -19.144531 12.035156 -18.34375 11.808594 -17.652344 C 11.578125 -16.851562 11.234375 -16.164062 10.890625 -15.476562 C 9.859375 -13.296875 8.597656 -11.578125 7.109375 -10.316406 L 6.417969 -9.972656 C 5.730469 -9.628906 5.160156 -9.746094 4.816406 -10.433594 C 4.125 -12.265625 4.011719 -13.984375 4.699219 -15.820312 C 4.816406 -16.050781 4.929688 -16.394531 4.929688 -16.621094 C 4.929688 -16.851562 4.929688 -17.082031 5.160156 -17.425781 C 5.847656 -18.800781 6.648438 -20.0625 7.796875 -20.980469 C 8.484375 -21.4375 9.054688 -21.894531 9.746094 -22.355469 C 10.433594 -22.8125 11.121094 -23.15625 11.921875 -23.5 C 12.378906 -23.730469 12.953125 -23.730469 13.414062 -23.613281 Z M 13.414062 -23.613281 "/></g></g></g></svg>